<svg width="120" height="35" viewBox="0 0 120 35" fill="none" xmlns="http://www.w3.org/2000/svg">
<rect width="119" height="25" rx="12.5" fill="#2F602B"/>
<path d="M20.052 5.4H25.182C26.514 5.4 27.69 5.67 28.71 6.21C29.73 6.738 30.522 7.482 31.086 8.442C31.65 9.39 31.932 10.476 31.932 11.7C31.932 12.924 31.65 14.016 31.086 14.976C30.522 15.924 29.73 16.668 28.71 17.208C27.69 17.736 26.514 18 25.182 18H20.052V5.4ZM25.11 16.848C26.214 16.848 27.18 16.632 28.008 16.2C28.836 15.756 29.478 15.15 29.934 14.382C30.39 13.602 30.618 12.708 30.618 11.7C30.618 10.692 30.39 9.804 29.934 9.036C29.478 8.256 28.836 7.65 28.008 7.218C27.18 6.774 26.214 6.552 25.11 6.552H21.384V16.848H25.11ZM34.6531 8.532H35.9311V18H34.6531V8.532ZM35.3011 6.462C35.0371 6.462 34.8151 6.372 34.6351 6.192C34.4551 6.012 34.3651 5.796 34.3651 5.544C34.3651 5.304 34.4551 5.094 34.6351 4.914C34.8151 4.734 35.0371 4.644 35.3011 4.644C35.5651 4.644 35.7871 4.734 35.9671 4.914C36.1471 5.082 36.2371 5.286 36.2371 5.526C36.2371 5.79 36.1471 6.012 35.9671 6.192C35.7871 6.372 35.5651 6.462 35.3011 6.462ZM44.4731 17.424C44.2331 17.64 43.9331 17.808 43.5731 17.928C43.2251 18.036 42.8591 18.09 42.4751 18.09C41.5871 18.09 40.9031 17.85 40.4231 17.37C39.9431 16.89 39.7031 16.212 39.7031 15.336V9.612H38.0111V8.532H39.7031V6.462H40.9811V8.532H43.8611V9.612H40.9811V15.264C40.9811 15.828 41.1191 16.26 41.3951 16.56C41.6831 16.848 42.0911 16.992 42.6191 16.992C42.8831 16.992 43.1351 16.95 43.3751 16.866C43.6271 16.782 43.8431 16.662 44.0231 16.506L44.4731 17.424ZM54.7096 13.662H46.7896C46.8616 14.646 47.2396 15.444 47.9236 16.056C48.6076 16.656 49.4716 16.956 50.5156 16.956C51.1036 16.956 51.6436 16.854 52.1356 16.65C52.6276 16.434 53.0536 16.122 53.4136 15.714L54.1336 16.542C53.7136 17.046 53.1856 17.43 52.5496 17.694C51.9256 17.958 51.2356 18.09 50.4796 18.09C49.5076 18.09 48.6436 17.886 47.8876 17.478C47.1436 17.058 46.5616 16.482 46.1416 15.75C45.7216 15.018 45.5116 14.19 45.5116 13.266C45.5116 12.342 45.7096 11.514 46.1056 10.782C46.5136 10.05 47.0656 9.48 47.7616 9.072C48.4696 8.664 49.2616 8.46 50.1376 8.46C51.0136 8.46 51.7996 8.664 52.4956 9.072C53.1916 9.48 53.7376 10.05 54.1336 10.782C54.5296 11.502 54.7276 12.33 54.7276 13.266L54.7096 13.662ZM50.1376 9.558C49.2256 9.558 48.4576 9.852 47.8336 10.44C47.2216 11.016 46.8736 11.772 46.7896 12.708H53.5036C53.4196 11.772 53.0656 11.016 52.4416 10.44C51.8296 9.852 51.0616 9.558 50.1376 9.558ZM58.5529 10.386C58.8529 9.75 59.2969 9.27 59.8849 8.946C60.4849 8.622 61.2229 8.46 62.0989 8.46V9.702L61.7929 9.684C60.7969 9.684 60.0169 9.99 59.4529 10.602C58.8889 11.214 58.6069 12.072 58.6069 13.176V18H57.3289V8.532H58.5529V10.386ZM64.4129 8.532H65.6909V18H64.4129V8.532ZM65.0609 6.462C64.7969 6.462 64.5749 6.372 64.3949 6.192C64.2149 6.012 64.1249 5.796 64.1249 5.544C64.1249 5.304 64.2149 5.094 64.3949 4.914C64.5749 4.734 64.7969 4.644 65.0609 4.644C65.3249 4.644 65.5469 4.734 65.7269 4.914C65.9069 5.082 65.9969 5.286 65.9969 5.526C65.9969 5.79 65.9069 6.012 65.7269 6.192C65.5469 6.372 65.3249 6.462 65.0609 6.462ZM81.0548 8.46C82.2428 8.46 83.1728 8.802 83.8448 9.486C84.5288 10.17 84.8708 11.178 84.8708 12.51V18H83.5928V12.636C83.5928 11.652 83.3528 10.902 82.8728 10.386C82.4048 9.87 81.7388 9.612 80.8748 9.612C79.8908 9.612 79.1168 9.918 78.5528 10.53C77.9888 11.13 77.7068 11.964 77.7068 13.032V18H76.4288V12.636C76.4288 11.652 76.1888 10.902 75.7088 10.386C75.2408 9.87 74.5688 9.612 73.6928 9.612C72.7208 9.612 71.9468 9.918 71.3708 10.53C70.8068 11.13 70.5248 11.964 70.5248 13.032V18H69.2468V8.532H70.4708V10.26C70.8068 9.684 71.2748 9.24 71.8748 8.928C72.4748 8.616 73.1648 8.46 73.9448 8.46C74.7368 8.46 75.4208 8.628 75.9968 8.964C76.5848 9.3 77.0228 9.798 77.3108 10.458C77.6588 9.834 78.1568 9.348 78.8048 9C79.4648 8.64 80.2148 8.46 81.0548 8.46ZM91.6487 8.46C92.8847 8.46 93.8327 8.772 94.4927 9.396C95.1527 10.008 95.4827 10.92 95.4827 12.132V18H94.2587V16.524C93.9707 17.016 93.5447 17.4 92.9807 17.676C92.4287 17.952 91.7687 18.09 91.0007 18.09C89.9447 18.09 89.1047 17.838 88.4807 17.334C87.8567 16.83 87.5447 16.164 87.5447 15.336C87.5447 14.532 87.8327 13.884 88.4087 13.392C88.9967 12.9 89.9267 12.654 91.1987 12.654H94.2047V12.078C94.2047 11.262 93.9767 10.644 93.5207 10.224C93.0647 9.792 92.3987 9.576 91.5227 9.576C90.9227 9.576 90.3467 9.678 89.7947 9.882C89.2427 10.074 88.7687 10.344 88.3727 10.692L87.7967 9.738C88.2767 9.33 88.8527 9.018 89.5247 8.802C90.1967 8.574 90.9047 8.46 91.6487 8.46ZM91.1987 17.082C91.9187 17.082 92.5367 16.92 93.0527 16.596C93.5687 16.26 93.9527 15.78 94.2047 15.156V13.608H91.2347C89.6147 13.608 88.8047 14.172 88.8047 15.3C88.8047 15.852 89.0147 16.29 89.4347 16.614C89.8547 16.926 90.4427 17.082 91.1987 17.082Z" fill="white"/>
</svg>
