<svg width="128" height="34" viewBox="0 0 128 34" fill="none" xmlns="http://www.w3.org/2000/svg">
<rect width="119" height="25" rx="12.5" fill="#FF0000"/>
<path d="M28.052 17V4.4H33.182C34.526 4.4 35.702 4.67 36.71 5.21C37.73 5.738 38.522 6.476 39.086 7.424C39.65 8.372 39.932 9.464 39.932 10.7C39.932 11.936 39.65 13.028 39.086 13.976C38.522 14.924 37.73 15.668 36.71 16.208C35.702 16.736 34.526 17 33.182 17H28.052ZM29.384 15.848H33.11C34.226 15.848 35.192 15.632 36.008 15.2C36.836 14.756 37.478 14.15 37.934 13.382C38.39 12.602 38.618 11.708 38.618 10.7C38.618 9.68 38.39 8.786 37.934 8.018C37.478 7.25 36.836 6.65 36.008 6.218C35.192 5.774 34.226 5.552 33.11 5.552H29.384V15.848ZM42.6531 17V7.55H43.9311V17H42.6531ZM43.3011 5.462C43.0371 5.462 42.8151 5.372 42.6351 5.192C42.4551 5.012 42.3651 4.796 42.3651 4.544C42.3651 4.292 42.4551 4.082 42.6351 3.914C42.8151 3.734 43.0371 3.644 43.3011 3.644C43.5651 3.644 43.7871 3.728 43.9671 3.896C44.1471 4.064 44.2371 4.274 44.2371 4.526C44.2371 4.79 44.1471 5.012 43.9671 5.192C43.7991 5.372 43.5771 5.462 43.3011 5.462ZM50.4751 17.09C49.5871 17.09 48.9031 16.85 48.4231 16.37C47.9431 15.89 47.7031 15.212 47.7031 14.336V5.462H48.9811V14.264C48.9811 14.816 49.1191 15.242 49.3951 15.542C49.6831 15.842 50.0911 15.992 50.6191 15.992C51.1831 15.992 51.6511 15.83 52.0231 15.506L52.4731 16.424C52.2211 16.652 51.9151 16.82 51.5551 16.928C51.2071 17.036 50.8471 17.09 50.4751 17.09ZM46.0111 8.612V7.55H51.8611V8.612H46.0111ZM58.3176 17.09C57.4056 17.09 56.5836 16.886 55.8516 16.478C55.1316 16.058 54.5616 15.488 54.1416 14.768C53.7216 14.036 53.5116 13.202 53.5116 12.266C53.5116 11.318 53.7216 10.484 54.1416 9.764C54.5616 9.044 55.1316 8.48 55.8516 8.072C56.5716 7.664 57.3936 7.46 58.3176 7.46C59.2536 7.46 60.0816 7.664 60.8016 8.072C61.5336 8.48 62.1036 9.044 62.5116 9.764C62.9316 10.484 63.1416 11.318 63.1416 12.266C63.1416 13.202 62.9316 14.036 62.5116 14.768C62.1036 15.488 61.5336 16.058 60.8016 16.478C60.0696 16.886 59.2416 17.09 58.3176 17.09ZM58.3176 15.956C59.0016 15.956 59.6076 15.806 60.1356 15.506C60.6636 15.194 61.0776 14.762 61.3776 14.21C61.6896 13.646 61.8456 12.998 61.8456 12.266C61.8456 11.522 61.6896 10.874 61.3776 10.322C61.0776 9.77 60.6636 9.344 60.1356 9.044C59.6076 8.732 59.0076 8.576 58.3356 8.576C57.6636 8.576 57.0636 8.732 56.5356 9.044C56.0076 9.344 55.5876 9.77 55.2756 10.322C54.9636 10.874 54.8076 11.522 54.8076 12.266C54.8076 12.998 54.9636 13.646 55.2756 14.21C55.5876 14.762 56.0076 15.194 56.5356 15.506C57.0636 15.806 57.6576 15.956 58.3176 15.956ZM65.7508 17V3.644H67.0288V17H65.7508ZM76.5067 17V14.912L76.4527 14.57V11.078C76.4527 10.274 76.2247 9.656 75.7687 9.224C75.3247 8.792 74.6587 8.576 73.7707 8.576C73.1587 8.576 72.5767 8.678 72.0247 8.882C71.4727 9.086 71.0047 9.356 70.6207 9.692L70.0447 8.738C70.5247 8.33 71.1007 8.018 71.7727 7.802C72.4447 7.574 73.1527 7.46 73.8967 7.46C75.1207 7.46 76.0627 7.766 76.7227 8.378C77.3947 8.978 77.7307 9.896 77.7307 11.132V17H76.5067ZM73.2487 17.09C72.5407 17.09 71.9227 16.976 71.3947 16.748C70.8787 16.508 70.4827 16.184 70.2067 15.776C69.9307 15.356 69.7927 14.876 69.7927 14.336C69.7927 13.844 69.9067 13.4 70.1347 13.004C70.3747 12.596 70.7587 12.272 71.2867 12.032C71.8267 11.78 72.5467 11.654 73.4467 11.654H76.7047V12.608H73.4827C72.5707 12.608 71.9347 12.77 71.5747 13.094C71.2267 13.418 71.0527 13.82 71.0527 14.3C71.0527 14.84 71.2627 15.272 71.6827 15.596C72.1027 15.92 72.6907 16.082 73.4467 16.082C74.1667 16.082 74.7847 15.92 75.3007 15.596C75.8287 15.26 76.2127 14.78 76.4527 14.156L76.7407 15.038C76.5007 15.662 76.0807 16.16 75.4807 16.532C74.8927 16.904 74.1487 17.09 73.2487 17.09ZM82.2099 14.552L82.2459 12.914L88.1319 7.55H89.6979L85.5399 11.528L84.8199 12.14L82.2099 14.552ZM81.2019 17V3.644H82.4799V17H81.2019ZM88.5279 17L84.5859 12.086L85.4139 11.096L90.0939 17H88.5279Z" fill="white"/>
</svg>
