<svg width="27" height="30" viewBox="0 0 27 30" fill="none" xmlns="http://www.w3.org/2000/svg">
<path d="M0 7.00001C0 6.22682 0.506557 5.60003 1.13143 5.60003L5.03898 5.59928C5.81536 5.57492 6.5003 4.96409 6.76447 4.06041C6.77142 4.03665 6.7794 4.00735 6.80805 3.90101L6.97642 3.27589C7.07945 2.89261 7.16921 2.55868 7.29483 2.26021C7.79107 1.08107 8.70918 0.262257 9.77016 0.0526229C10.0387 -0.000444008 10.3231 -0.000220449 10.6496 3.49107e-05H15.7507C16.0772 -0.000220449 16.3615 -0.000444008 16.6301 0.0526229C17.6911 0.262257 18.6092 1.08107 19.1054 2.26021C19.2311 2.55868 19.3208 2.89261 19.4238 3.27589L19.5922 3.90101C19.6208 4.00735 19.6288 4.03665 19.6357 4.06041C19.9 4.96409 20.7208 5.57567 21.4971 5.60003H25.2686C25.8934 5.60003 26.4 6.22682 26.4 7.00001C26.4 7.7732 25.8934 8.4 25.2686 8.4H1.13143C0.506557 8.4 0 7.7732 0 7.00001Z" fill="#FF0000"/>
<path fill-rule="evenodd" clip-rule="evenodd" d="M12.5764 29.9999H13.8243C18.1176 29.9999 20.2643 29.9999 21.66 28.6792C23.0558 27.3585 23.1985 25.1921 23.4841 20.8592L23.8956 14.616C24.0507 12.265 24.1281 11.0896 23.4278 10.3447C22.7277 9.59985 21.5452 9.59985 19.1805 9.59985H7.22033C4.85549 9.59985 3.67306 9.59985 2.97287 10.3447C2.27267 11.0896 2.35015 12.265 2.50512 14.616L2.91661 20.8592C3.20221 25.1921 3.345 27.3585 4.74073 28.6792C6.13646 29.9999 8.28313 29.9999 12.5764 29.9999ZM10.4947 15.3731C10.4311 14.7264 9.864 14.2545 9.2281 14.3192C8.59219 14.3839 8.12826 14.9606 8.19184 15.6073L8.96326 23.4536C9.02686 24.1003 9.59391 24.5723 10.2298 24.5076C10.8657 24.4429 11.3297 23.8661 11.2661 23.2194L10.4947 15.3731ZM17.1726 14.3192C17.8086 14.3839 18.2725 14.9606 18.2089 15.6073L17.4375 23.4536C17.374 24.1003 16.8068 24.5723 16.171 24.5076C15.535 24.4429 15.0711 23.8661 15.1347 23.2194L15.9061 15.3731C15.9696 14.7264 16.5368 14.2545 17.1726 14.3192Z" fill="#FF0000"/>
</svg>
