<svg width="21" height="23" viewBox="0 0 21 23" fill="none" xmlns="http://www.w3.org/2000/svg">
<path d="M0 5.36667C0 4.7739 0.388361 4.29335 0.86743 4.29335L3.86322 4.29278C4.45844 4.27411 4.98356 3.8058 5.1861 3.11298C5.19142 3.09477 5.19754 3.0723 5.2195 2.99077L5.34859 2.51151C5.42758 2.21767 5.4964 1.96165 5.59271 1.73283C5.97315 0.828819 6.67704 0.201064 7.49045 0.0403443C7.69634 -0.000340406 7.9144 -0.000169011 8.1647 2.67649e-05H12.0755C12.3258 -0.000169011 12.5439 -0.000340406 12.7497 0.0403443C13.5632 0.201064 14.2671 0.828819 14.6475 1.73283C14.7438 1.96165 14.8126 2.21767 14.8916 2.51151L15.0207 2.99077C15.0426 3.0723 15.0488 3.09477 15.0541 3.11298C15.2567 3.8058 15.8859 4.27468 16.4811 4.29335H19.3726C19.8516 4.29335 20.24 4.7739 20.24 5.36667C20.24 5.95946 19.8516 6.44 19.3726 6.44H0.86743C0.388361 6.44 0 5.95946 0 5.36667Z" fill="#FF0000"/>
<path fill-rule="evenodd" clip-rule="evenodd" d="M9.64149 23.0001H10.5982C13.8897 23.0001 15.5355 23.0001 16.6056 21.9876C17.6757 20.9751 17.7851 19.3142 18.004 15.9923L18.3195 11.2058C18.4384 9.40341 18.4978 8.50226 17.9609 7.93118C17.4241 7.36011 16.5175 7.36011 14.7046 7.36011H5.53513C3.72209 7.36011 2.81556 7.36011 2.27874 7.93118C1.74193 8.50226 1.80133 9.40341 1.92014 11.2058L2.23561 15.9923C2.45457 19.3142 2.56405 20.9751 3.63411 21.9876C4.70416 23.0001 6.34994 23.0001 9.64149 23.0001ZM8.04546 11.7863C7.99673 11.2905 7.56194 10.9286 7.07442 10.9782C6.58689 11.0278 6.23121 11.47 6.27995 11.9658L6.87138 17.9813C6.92014 18.4771 7.35487 18.8389 7.84236 18.7893C8.32994 18.7397 8.68562 18.2975 8.63689 17.8017L8.04546 11.7863ZM13.1652 10.9782C13.6528 11.0278 14.0085 11.47 13.9597 11.9658L13.3683 17.9813C13.3196 18.4771 12.8848 18.8389 12.3973 18.7893C11.9097 18.7397 11.554 18.2975 11.6028 17.8017L12.1942 11.7863C12.2429 11.2905 12.6778 10.9286 13.1652 10.9782Z" fill="#FF0000"/>
</svg>
