<svg width="115" height="38" viewBox="0 0 115 38" fill="none" xmlns="http://www.w3.org/2000/svg">
<rect width="115" height="38" rx="5" fill="#561C24"/>
<path d="M34.494 25V12.4H37.41V22.624H43.728V25H34.494ZM45.1593 25V15.316H47.9673V25H45.1593ZM46.5633 13.966C46.0473 13.966 45.6273 13.816 45.3033 13.516C44.9793 13.216 44.8173 12.844 44.8173 12.4C44.8173 11.956 44.9793 11.584 45.3033 11.284C45.6273 10.984 46.0473 10.834 46.5633 10.834C47.0793 10.834 47.4993 10.978 47.8233 11.266C48.1473 11.542 48.3093 11.902 48.3093 12.346C48.3093 12.814 48.1473 13.204 47.8233 13.516C47.5113 13.816 47.0913 13.966 46.5633 13.966ZM56.4593 15.172C57.2273 15.172 57.9113 15.328 58.5113 15.64C59.1233 15.94 59.6033 16.408 59.9513 17.044C60.2993 17.668 60.4733 18.472 60.4733 19.456V25H57.6653V19.888C57.6653 19.108 57.4913 18.532 57.1433 18.16C56.8073 17.788 56.3273 17.602 55.7033 17.602C55.2593 17.602 54.8573 17.698 54.4973 17.89C54.1493 18.07 53.8733 18.352 53.6693 18.736C53.4773 19.12 53.3813 19.612 53.3813 20.212V25H50.5733V11.644H53.3813V17.998L52.7513 17.188C53.0993 16.54 53.5973 16.042 54.2453 15.694C54.8933 15.346 55.6313 15.172 56.4593 15.172ZM68.9587 25V23.11L68.7787 22.696V19.312C68.7787 18.712 68.5927 18.244 68.2207 17.908C67.8607 17.572 67.3027 17.404 66.5467 17.404C66.0307 17.404 65.5207 17.488 65.0167 17.656C64.5247 17.812 64.1047 18.028 63.7567 18.304L62.7487 16.342C63.2767 15.97 63.9127 15.682 64.6567 15.478C65.4007 15.274 66.1567 15.172 66.9247 15.172C68.4007 15.172 69.5467 15.52 70.3627 16.216C71.1787 16.912 71.5867 17.998 71.5867 19.474V25H68.9587ZM66.0067 25.144C65.2507 25.144 64.6027 25.018 64.0627 24.766C63.5227 24.502 63.1087 24.148 62.8207 23.704C62.5327 23.26 62.3887 22.762 62.3887 22.21C62.3887 21.634 62.5267 21.13 62.8027 20.698C63.0907 20.266 63.5407 19.93 64.1527 19.69C64.7647 19.438 65.5627 19.312 66.5467 19.312H69.1207V20.95H66.8527C66.1927 20.95 65.7367 21.058 65.4847 21.274C65.2447 21.49 65.1247 21.76 65.1247 22.084C65.1247 22.444 65.2627 22.732 65.5387 22.948C65.8267 23.152 66.2167 23.254 66.7087 23.254C67.1767 23.254 67.5967 23.146 67.9687 22.93C68.3407 22.702 68.6107 22.372 68.7787 21.94L69.2107 23.236C69.0067 23.86 68.6347 24.334 68.0947 24.658C67.5547 24.982 66.8587 25.144 66.0067 25.144ZM78.088 25.144C76.948 25.144 76.06 24.856 75.424 24.28C74.788 23.692 74.47 22.822 74.47 21.67V13.174H77.278V21.634C77.278 22.042 77.386 22.36 77.602 22.588C77.818 22.804 78.112 22.912 78.484 22.912C78.928 22.912 79.306 22.792 79.618 22.552L80.374 24.532C80.086 24.736 79.738 24.892 79.33 25C78.934 25.096 78.52 25.144 78.088 25.144ZM72.976 17.692V15.532H79.69V17.692H72.976Z" fill="white"/>
</svg>
