<svg width="119" height="35" viewBox="0 0 119 35" fill="none" xmlns="http://www.w3.org/2000/svg">
<rect width="119" height="25" rx="12.5" fill="#F3EDC8"/>
<path d="M25.138 5.4V18H23.86V7.92L18.91 16.398H18.28L13.33 7.974V18H12.052V5.4H13.15L18.622 14.742L24.04 5.4H25.138ZM37.2174 13.662H29.2974C29.3694 14.646 29.7474 15.444 30.4314 16.056C31.1154 16.656 31.9794 16.956 33.0234 16.956C33.6114 16.956 34.1514 16.854 34.6434 16.65C35.1354 16.434 35.5614 16.122 35.9214 15.714L36.6414 16.542C36.2214 17.046 35.6934 17.43 35.0574 17.694C34.4334 17.958 33.7434 18.09 32.9874 18.09C32.0154 18.09 31.1514 17.886 30.3954 17.478C29.6514 17.058 29.0694 16.482 28.6494 15.75C28.2294 15.018 28.0194 14.19 28.0194 13.266C28.0194 12.342 28.2174 11.514 28.6134 10.782C29.0214 10.05 29.5734 9.48 30.2694 9.072C30.9774 8.664 31.7694 8.46 32.6454 8.46C33.5214 8.46 34.3074 8.664 35.0034 9.072C35.6994 9.48 36.2454 10.05 36.6414 10.782C37.0374 11.502 37.2354 12.33 37.2354 13.266L37.2174 13.662ZM32.6454 9.558C31.7334 9.558 30.9654 9.852 30.3414 10.44C29.7294 11.016 29.3814 11.772 29.2974 12.708H36.0114C35.9274 11.772 35.5734 11.016 34.9494 10.44C34.3374 9.852 33.5694 9.558 32.6454 9.558ZM44.6607 8.46C45.8487 8.46 46.7907 8.808 47.4867 9.504C48.1947 10.188 48.5487 11.19 48.5487 12.51V18H47.2707V12.636C47.2707 11.652 47.0247 10.902 46.5327 10.386C46.0407 9.87 45.3387 9.612 44.4267 9.612C43.4067 9.612 42.5967 9.918 41.9967 10.53C41.4087 11.13 41.1147 11.964 41.1147 13.032V18H39.8367V8.532H41.0607V10.278C41.4087 9.702 41.8887 9.258 42.5007 8.946C43.1247 8.622 43.8447 8.46 44.6607 8.46ZM60.5503 8.532V18H59.3263V16.272C58.9903 16.848 58.5283 17.298 57.9403 17.622C57.3523 17.934 56.6803 18.09 55.9243 18.09C54.6883 18.09 53.7103 17.748 52.9903 17.064C52.2823 16.368 51.9283 15.354 51.9283 14.022V8.532H53.2063V13.896C53.2063 14.892 53.4523 15.648 53.9443 16.164C54.4363 16.68 55.1383 16.938 56.0503 16.938C57.0463 16.938 57.8323 16.638 58.4083 16.038C58.9843 15.426 59.2723 14.58 59.2723 13.5V8.532H60.5503ZM68.9537 8.46C70.1417 8.46 71.0837 8.808 71.7797 9.504C72.4877 10.188 72.8417 11.19 72.8417 12.51V18H71.5637V12.636C71.5637 11.652 71.3177 10.902 70.8257 10.386C70.3337 9.87 69.6317 9.612 68.7197 9.612C67.6997 9.612 66.8897 9.918 66.2897 10.53C65.7017 11.13 65.4077 11.964 65.4077 13.032V18H64.1297V8.532H65.3537V10.278C65.7017 9.702 66.1817 9.258 66.7937 8.946C67.4177 8.622 68.1377 8.46 68.9537 8.46ZM85.1125 8.532V16.848C85.1125 18.456 84.7165 19.644 83.9245 20.412C83.1445 21.192 81.9625 21.582 80.3785 21.582C79.5025 21.582 78.6685 21.45 77.8765 21.186C77.0965 20.934 76.4605 20.58 75.9685 20.124L76.6165 19.152C77.0725 19.56 77.6245 19.878 78.2725 20.106C78.9325 20.334 79.6225 20.448 80.3425 20.448C81.5425 20.448 82.4245 20.166 82.9885 19.602C83.5525 19.05 83.8345 18.186 83.8345 17.01V15.804C83.4385 16.404 82.9165 16.86 82.2685 17.172C81.6325 17.484 80.9245 17.64 80.1445 17.64C79.2565 17.64 78.4465 17.448 77.7145 17.064C76.9945 16.668 76.4245 16.122 76.0045 15.426C75.5965 14.718 75.3925 13.92 75.3925 13.032C75.3925 12.144 75.5965 11.352 76.0045 10.656C76.4245 9.96 76.9945 9.42 77.7145 9.036C78.4345 8.652 79.2445 8.46 80.1445 8.46C80.9485 8.46 81.6745 8.622 82.3225 8.946C82.9705 9.27 83.4925 9.738 83.8885 10.35V8.532H85.1125ZM80.2705 16.506C80.9545 16.506 81.5725 16.362 82.1245 16.074C82.6765 15.774 83.1025 15.36 83.4025 14.832C83.7145 14.304 83.8705 13.704 83.8705 13.032C83.8705 12.36 83.7145 11.766 83.4025 11.25C83.1025 10.722 82.6765 10.314 82.1245 10.026C81.5845 9.726 80.9665 9.576 80.2705 9.576C79.5865 9.576 78.9685 9.72 78.4165 10.008C77.8765 10.296 77.4505 10.704 77.1385 11.232C76.8385 11.76 76.6885 12.36 76.6885 13.032C76.6885 13.704 76.8385 14.304 77.1385 14.832C77.4505 15.36 77.8765 15.774 78.4165 16.074C78.9685 16.362 79.5865 16.506 80.2705 16.506ZM97.4523 8.532V16.848C97.4523 18.456 97.0563 19.644 96.2643 20.412C95.4843 21.192 94.3023 21.582 92.7183 21.582C91.8423 21.582 91.0083 21.45 90.2163 21.186C89.4363 20.934 88.8003 20.58 88.3083 20.124L88.9563 19.152C89.4123 19.56 89.9643 19.878 90.6123 20.106C91.2723 20.334 91.9623 20.448 92.6823 20.448C93.8823 20.448 94.7643 20.166 95.3283 19.602C95.8923 19.05 96.1743 18.186 96.1743 17.01V15.804C95.7783 16.404 95.2563 16.86 94.6083 17.172C93.9723 17.484 93.2643 17.64 92.4843 17.64C91.5963 17.64 90.7863 17.448 90.0543 17.064C89.3343 16.668 88.7643 16.122 88.3443 15.426C87.9363 14.718 87.7323 13.92 87.7323 13.032C87.7323 12.144 87.9363 11.352 88.3443 10.656C88.7643 9.96 89.3343 9.42 90.0543 9.036C90.7743 8.652 91.5843 8.46 92.4843 8.46C93.2883 8.46 94.0143 8.622 94.6623 8.946C95.3103 9.27 95.8323 9.738 96.2283 10.35V8.532H97.4523ZM92.6103 16.506C93.2943 16.506 93.9123 16.362 94.4643 16.074C95.0163 15.774 95.4423 15.36 95.7423 14.832C96.0543 14.304 96.2103 13.704 96.2103 13.032C96.2103 12.36 96.0543 11.766 95.7423 11.25C95.4423 10.722 95.0163 10.314 94.4643 10.026C93.9243 9.726 93.3063 9.576 92.6103 9.576C91.9263 9.576 91.3083 9.72 90.7563 10.008C90.2163 10.296 89.7903 10.704 89.4783 11.232C89.1783 11.76 89.0283 12.36 89.0283 13.032C89.0283 13.704 89.1783 14.304 89.4783 14.832C89.7903 15.36 90.2163 15.774 90.7563 16.074C91.3083 16.362 91.9263 16.506 92.6103 16.506ZM109.558 8.532V18H108.334V16.272C107.998 16.848 107.536 17.298 106.948 17.622C106.36 17.934 105.688 18.09 104.932 18.09C103.696 18.09 102.718 17.748 101.998 17.064C101.29 16.368 100.936 15.354 100.936 14.022V8.532H102.214V13.896C102.214 14.892 102.46 15.648 102.952 16.164C103.444 16.68 104.146 16.938 105.058 16.938C106.054 16.938 106.84 16.638 107.416 16.038C107.992 15.426 108.28 14.58 108.28 13.5V8.532H109.558Z" fill="black"/>
</svg>
