<svg width="27" height="27" viewBox="0 0 27 27" fill="none" xmlns="http://www.w3.org/2000/svg">
<path d="M13.5 25C19.8513 25 25 19.8513 25 13.5C25 7.14873 19.8513 2 13.5 2C7.14873 2 2 7.14873 2 13.5C2 19.8513 7.14873 25 13.5 25Z" stroke="black" stroke-width="2.3"/>
<path d="M13.8725 8.74427L13.8721 8.75428V8.7643V12.5535V13.1285H14.4471H18.2229C18.3166 13.1338 18.4049 13.1741 18.4702 13.2417C18.5373 13.3112 18.5748 13.404 18.5748 13.5006C18.5748 13.5971 18.5373 13.6899 18.4702 13.7594C18.4049 13.827 18.3166 13.8674 18.2229 13.8726H14.4471H13.8721V14.4476V18.2357V18.2457L13.8725 18.2557C13.8742 18.3057 13.8659 18.3556 13.8479 18.4023C13.83 18.449 13.8029 18.4916 13.7681 18.5275C13.7334 18.5635 13.6917 18.5921 13.6457 18.6117C13.5996 18.6312 13.5501 18.6413 13.5001 18.6413C13.4501 18.6413 13.4006 18.6312 13.3545 18.6117C13.3085 18.5921 13.2668 18.5635 13.2321 18.5275C13.1973 18.4916 13.1702 18.449 13.1522 18.4023C13.1343 18.3556 13.126 18.3057 13.1277 18.2557L13.1281 18.2457V18.2357V14.4476V13.8726H12.5531H8.76381H8.75379L8.74378 13.8729C8.69379 13.8747 8.64396 13.8663 8.59726 13.8484C8.55056 13.8305 8.50795 13.8033 8.47196 13.7686C8.43598 13.7338 8.40737 13.6922 8.38782 13.6462C8.36828 13.6001 8.3582 13.5506 8.3582 13.5006C8.3582 13.4506 8.36828 13.401 8.38782 13.355C8.40737 13.3089 8.43598 13.2673 8.47196 13.2326C8.50795 13.1978 8.55056 13.1707 8.59726 13.1527C8.64396 13.1348 8.69379 13.1265 8.74378 13.1282L8.75379 13.1285H8.76381H12.5531H13.1281V12.5535V8.7643V8.75428L13.1277 8.74427C13.126 8.69428 13.1343 8.64445 13.1522 8.59775C13.1702 8.55105 13.1973 8.50844 13.2321 8.47245C13.2668 8.43647 13.3085 8.40785 13.3545 8.38831C13.4006 8.36876 13.4501 8.35869 13.5001 8.35869C13.5501 8.35869 13.5996 8.36876 13.6457 8.38831C13.6917 8.40785 13.7334 8.43647 13.7681 8.47245C13.8029 8.50844 13.83 8.55105 13.8479 8.59775C13.8659 8.64445 13.8742 8.69428 13.8725 8.74427Z" fill="black" stroke="black" stroke-width="1.15"/>
</svg>
