<svg width="34" height="34" viewBox="0 0 34 34" fill="none" xmlns="http://www.w3.org/2000/svg">
<path d="M17 32C25.2843 32 32 25.2843 32 17C32 8.71573 25.2843 2 17 2C8.71573 2 2 8.71573 2 17C2 25.2843 8.71573 32 17 32Z" stroke="black" stroke-width="2.3"/>
<path d="M17.6613 10.803L17.661 10.813V10.823V15.7655V16.3405H18.236H23.1654C23.3335 16.3485 23.4924 16.4204 23.6094 16.5416C23.7284 16.6648 23.7949 16.8294 23.7949 17.0007C23.7949 17.1721 23.7284 17.3367 23.6094 17.4599C23.4924 17.5811 23.3335 17.653 23.1654 17.661H18.236H17.661V18.236V23.177V23.187L17.6613 23.197C17.6644 23.2857 17.6496 23.3741 17.6178 23.457C17.586 23.5398 17.5379 23.6154 17.4762 23.6792C17.4146 23.7431 17.3407 23.7938 17.259 23.8285C17.1773 23.8632 17.0895 23.8811 17.0007 23.8811C16.912 23.8811 16.8242 23.8632 16.7425 23.8285C16.6608 23.7938 16.5869 23.7431 16.5253 23.6792C16.4636 23.6154 16.4155 23.5398 16.3837 23.457C16.3519 23.3741 16.3371 23.2857 16.3401 23.197L16.3405 23.187V23.177V18.236V17.661H15.7655H10.823H10.813L10.803 17.6613C10.7143 17.6644 10.6259 17.6496 10.543 17.6178C10.4602 17.586 10.3846 17.5379 10.3208 17.4762C10.2569 17.4146 10.2062 17.3407 10.1715 17.259C10.1368 17.1773 10.1189 17.0895 10.1189 17.0007C10.1189 16.912 10.1368 16.8242 10.1715 16.7425C10.2062 16.6608 10.2569 16.5869 10.3208 16.5253C10.3846 16.4636 10.4602 16.4155 10.543 16.3837C10.6259 16.3519 10.7143 16.3371 10.803 16.3401L10.813 16.3405H10.823H15.7655H16.3405V15.7655V10.823V10.813L16.3401 10.803C16.3371 10.7143 16.3519 10.6259 16.3837 10.543C16.4155 10.4602 16.4636 10.3846 16.5253 10.3208C16.5869 10.2569 16.6608 10.2062 16.7425 10.1715C16.8242 10.1368 16.912 10.1189 17.0007 10.1189C17.0895 10.1189 17.1773 10.1368 17.259 10.1715C17.3407 10.2062 17.4146 10.2569 17.4762 10.3208C17.5379 10.3846 17.586 10.4602 17.6178 10.543C17.6496 10.6259 17.6644 10.7143 17.6613 10.803Z" fill="black" stroke="black" stroke-width="1.15"/>
</svg>
