<svg width="120" height="35" viewBox="0 0 120 35" fill="none" xmlns="http://www.w3.org/2000/svg">
<rect width="119" height="25" rx="12.5" fill="#F3EDC8"/>
<path d="M30.528 5.4L24.948 18H23.634L18.054 5.4H19.494L24.318 16.344L29.178 5.4H30.528ZM39.61 13.662H31.69C31.762 14.646 32.14 15.444 32.824 16.056C33.508 16.656 34.372 16.956 35.416 16.956C36.004 16.956 36.544 16.854 37.036 16.65C37.528 16.434 37.954 16.122 38.314 15.714L39.034 16.542C38.614 17.046 38.086 17.43 37.45 17.694C36.826 17.958 36.136 18.09 35.38 18.09C34.408 18.09 33.544 17.886 32.788 17.478C32.044 17.058 31.462 16.482 31.042 15.75C30.622 15.018 30.412 14.19 30.412 13.266C30.412 12.342 30.61 11.514 31.006 10.782C31.414 10.05 31.966 9.48 32.662 9.072C33.37 8.664 34.162 8.46 35.038 8.46C35.914 8.46 36.7 8.664 37.396 9.072C38.092 9.48 38.638 10.05 39.034 10.782C39.43 11.502 39.628 12.33 39.628 13.266L39.61 13.662ZM35.038 9.558C34.126 9.558 33.358 9.852 32.734 10.44C32.122 11.016 31.774 11.772 31.69 12.708H38.404C38.32 11.772 37.966 11.016 37.342 10.44C36.73 9.852 35.962 9.558 35.038 9.558ZM43.4533 10.386C43.7533 9.75 44.1973 9.27 44.7853 8.946C45.3853 8.622 46.1233 8.46 46.9993 8.46V9.702L46.6933 9.684C45.6973 9.684 44.9173 9.99 44.3533 10.602C43.7893 11.214 43.5073 12.072 43.5073 13.176V18H42.2293V8.532H43.4533V10.386ZM49.3133 8.532H50.5913V18H49.3133V8.532ZM49.9613 6.462C49.6973 6.462 49.4753 6.372 49.2953 6.192C49.1153 6.012 49.0253 5.796 49.0253 5.544C49.0253 5.304 49.1153 5.094 49.2953 4.914C49.4753 4.734 49.6973 4.644 49.9613 4.644C50.2253 4.644 50.4473 4.734 50.6273 4.914C50.8073 5.082 50.8973 5.286 50.8973 5.526C50.8973 5.79 50.8073 6.012 50.6273 6.192C50.4473 6.372 50.2253 6.462 49.9613 6.462ZM57.2792 5.634C56.7272 5.634 56.3072 5.784 56.0192 6.084C55.7432 6.384 55.6052 6.828 55.6052 7.416V8.532H58.5212V9.612H55.6412V18H54.3632V9.612H52.6712V8.532H54.3632V7.362C54.3632 6.498 54.6092 5.814 55.1012 5.31C55.6052 4.806 56.3132 4.554 57.2252 4.554C57.5852 4.554 57.9332 4.608 58.2692 4.716C58.6052 4.812 58.8872 4.956 59.1152 5.148L58.6832 6.102C58.3112 5.79 57.8432 5.634 57.2792 5.634ZM61.6892 8.532H62.9672V18H61.6892V8.532ZM62.3372 6.462C62.0732 6.462 61.8512 6.372 61.6712 6.192C61.4912 6.012 61.4012 5.796 61.4012 5.544C61.4012 5.304 61.4912 5.094 61.6712 4.914C61.8512 4.734 62.0732 4.644 62.3372 4.644C62.6012 4.644 62.8232 4.734 63.0032 4.914C63.1832 5.082 63.2732 5.286 63.2732 5.526C63.2732 5.79 63.1832 6.012 63.0032 6.192C62.8232 6.372 62.6012 6.462 62.3372 6.462ZM70.0498 13.248L67.8178 15.3V18H66.5398V4.644H67.8178V13.698L73.4698 8.532H75.0538L71.0038 12.402L75.4318 18H73.8658L70.0498 13.248ZM80.4866 8.46C81.7226 8.46 82.6706 8.772 83.3306 9.396C83.9906 10.008 84.3206 10.92 84.3206 12.132V18H83.0966V16.524C82.8086 17.016 82.3826 17.4 81.8186 17.676C81.2666 17.952 80.6066 18.09 79.8386 18.09C78.7826 18.09 77.9426 17.838 77.3186 17.334C76.6946 16.83 76.3826 16.164 76.3826 15.336C76.3826 14.532 76.6706 13.884 77.2466 13.392C77.8346 12.9 78.7646 12.654 80.0366 12.654H83.0426V12.078C83.0426 11.262 82.8146 10.644 82.3586 10.224C81.9026 9.792 81.2366 9.576 80.3606 9.576C79.7606 9.576 79.1846 9.678 78.6326 9.882C78.0806 10.074 77.6066 10.344 77.2106 10.692L76.6346 9.738C77.1146 9.33 77.6906 9.018 78.3626 8.802C79.0346 8.574 79.7426 8.46 80.4866 8.46ZM80.0366 17.082C80.7566 17.082 81.3746 16.92 81.8906 16.596C82.4066 16.26 82.7906 15.78 83.0426 15.156V13.608H80.0726C78.4526 13.608 77.6426 14.172 77.6426 15.3C77.6426 15.852 77.8526 16.29 78.2726 16.614C78.6926 16.926 79.2806 17.082 80.0366 17.082ZM90.3298 18.09C89.5618 18.09 88.8238 17.982 88.1158 17.766C87.4198 17.538 86.8738 17.256 86.4778 16.92L87.0538 15.912C87.4498 16.224 87.9478 16.482 88.5478 16.686C89.1478 16.878 89.7718 16.974 90.4198 16.974C91.2838 16.974 91.9198 16.842 92.3278 16.578C92.7478 16.302 92.9578 15.918 92.9578 15.426C92.9578 15.078 92.8438 14.808 92.6158 14.616C92.3878 14.412 92.0998 14.262 91.7518 14.166C91.4038 14.058 90.9418 13.956 90.3658 13.86C89.5978 13.716 88.9798 13.572 88.5118 13.428C88.0438 13.272 87.6418 13.014 87.3058 12.654C86.9818 12.294 86.8198 11.796 86.8198 11.16C86.8198 10.368 87.1498 9.72 87.8098 9.216C88.4698 8.712 89.3878 8.46 90.5638 8.46C91.1758 8.46 91.7878 8.544 92.3998 8.712C93.0118 8.868 93.5158 9.078 93.9118 9.342L93.3538 10.368C92.5738 9.828 91.6438 9.558 90.5638 9.558C89.7478 9.558 89.1298 9.702 88.7098 9.99C88.3018 10.278 88.0978 10.656 88.0978 11.124C88.0978 11.484 88.2118 11.772 88.4398 11.988C88.6798 12.204 88.9738 12.366 89.3218 12.474C89.6698 12.57 90.1498 12.672 90.7618 12.78C91.5178 12.924 92.1238 13.068 92.5798 13.212C93.0358 13.356 93.4258 13.602 93.7498 13.95C94.0738 14.298 94.2358 14.778 94.2358 15.39C94.2358 16.218 93.8878 16.878 93.1918 17.37C92.5078 17.85 91.5538 18.09 90.3298 18.09ZM96.5984 8.532H97.8764V18H96.5984V8.532ZM97.2464 6.462C96.9824 6.462 96.7604 6.372 96.5804 6.192C96.4004 6.012 96.3104 5.796 96.3104 5.544C96.3104 5.304 96.4004 5.094 96.5804 4.914C96.7604 4.734 96.9824 4.644 97.2464 4.644C97.5104 4.644 97.7324 4.734 97.9124 4.914C98.0924 5.082 98.1824 5.286 98.1824 5.526C98.1824 5.79 98.0924 6.012 97.9124 6.192C97.7324 6.372 97.5104 6.462 97.2464 6.462Z" fill="black"/>
</svg>
